<?xml version="1.0" encoding="UTF-8" standalone="no"?>
<!-- Created with Inkscape (http://www.inkscape.org/) -->

<svg
   version="1.1"
   id="svg2"
   width="24.516968"
   height="23.999998"
   viewBox="0 0 24.516968 23.999998"
   xmlns="http://www.w3.org/2000/svg"
   xmlns:svg="http://www.w3.org/2000/svg">
  <defs
     id="defs6">
    <clipPath
       clipPathUnits="userSpaceOnUse"
       id="clipPath206">
      <path
         d="M 0,612 H 792 V 0 H 0 Z"
         id="path204" />
    </clipPath>
    <clipPath
       clipPathUnits="userSpaceOnUse"
       id="clipPath234">
      <path
         d="M 328.382,344.651 H 486.295 V 252.372 H 328.382 Z"
         id="path232" />
    </clipPath>
  </defs>
  <g
     id="g198"
     transform="matrix(1.3333333,0,0,-1.3333333,-135.34009,792.38077)">
    <g
       id="g200"
       transform="matrix(0.03121905,0,0,0.03121905,98.336207,575.73256)">
      <g
         id="g202"
         clip-path="url(#clipPath206)">
        <g
           id="g208"
           transform="translate(402.2021,594.2856)">
          <path
             d="m 0,0 c -131.952,0 -243.18,-88.656 -277.406,-209.646 h 64.305 c 31.997,86.696 115.293,148.539 213.104,148.539 125.469,0 227.18,-101.711 227.18,-227.18 0,-125.469 -101.711,-227.18 -227.18,-227.18 -114.393,0 -208.999,84.562 -224.816,194.578 h 27.936 c -1.353,9.464 -2.09,19.125 -2.09,28.964 0,12.376 1.17,24.475 3.29,36.242 h -29.134 c 1.985,13.8 5.211,27.198 9.556,40.078 h -63.759 c -3.382,-13.024 -5.882,-26.405 -7.422,-40.078 h -11.479 c -1.814,-10.901 -2.782,-22.091 -2.782,-33.51 0,-10.782 0.846,-21.369 2.468,-31.693 h 11.793 c 16.195,-143.863 138.25,-255.685 286.442,-255.685 159.217,0 288.287,129.07 288.287,288.287 C 288.287,-129.07 159.217,0 0,0"
             style="fill:#00ff00;fill-opacity:1;fill-rule:nonzero;stroke:none"
             id="path210" />
        </g>
        <g
           id="g212"
           transform="translate(356.9385,173.2432)">
          <path
             d="m 0,0 c -73.318,0 -132.756,59.437 -132.756,132.755 0,73.319 59.438,132.756 132.756,132.756 73.319,0 132.756,-59.437 132.756,-132.756 C 132.756,59.437 73.319,0 0,0 m 61.832,335.832 c -112.156,0 -203.077,-90.92 -203.077,-203.077 0,-112.156 90.921,-203.076 203.077,-203.076 112.156,0 203.076,90.92 203.076,203.076 0,112.157 -90.92,203.077 -203.076,203.077"
             style="fill:#ffff00;fill-opacity:1;fill-rule:nonzero;stroke:none"
             id="path214" />
        </g>
        <g
           id="g216"
           transform="translate(444.4277,135.5039)">
          <path
             d="m 0,0 c -94.161,0 -170.494,76.333 -170.494,170.495 0,94.161 76.333,170.495 170.494,170.495 94.161,0 170.495,-76.334 170.495,-170.495 C 170.495,76.333 94.161,0 0,0 m -25.657,373.571 c -112.156,0 -203.077,-90.92 -203.077,-203.076 0,-112.157 90.921,-203.077 203.077,-203.077 112.156,0 203.076,90.92 203.076,203.077 0,112.156 -90.92,203.076 -203.076,203.076"
             style="fill:#00ff00;fill-opacity:1;fill-rule:nonzero;stroke:none"
             id="path218" />
        </g>
        <g
           id="g220"
           transform="translate(296.1025,286.3818)">
          <path
             d="m 0,0 c -8.263,0 -14.96,6.697 -14.96,14.96 0,8.263 6.697,14.961 14.96,14.961 8.264,0 14.961,-6.698 14.961,-14.961 C 14.961,6.697 8.264,0 0,0 m 6.967,37.85 c -12.64,0 -22.887,-10.247 -22.887,-22.887 0,-12.639 10.247,-22.886 22.887,-22.886 12.639,0 22.887,10.247 22.887,22.886 0,12.64 -10.245,22.887 -22.887,22.887"
             style="fill:#39b54a;fill-opacity:1;fill-rule:nonzero;stroke:none"
             id="path222" />
        </g>
        <g
           id="g224"
           transform="translate(305.9629,282.127)">
          <path
             d="m 0,0 c -10.613,0 -19.216,8.603 -19.216,19.215 0,10.613 8.603,19.215 19.216,19.215 10.612,0 19.215,-8.602 19.215,-19.215 C 19.215,8.603 10.612,0 0,0 m -2.894,42.104 c -12.639,0 -22.886,-10.247 -22.886,-22.886 0,-12.639 10.247,-22.886 22.886,-22.886 12.64,0 22.887,10.247 22.887,22.886 0,12.639 -10.244,22.886 -22.887,22.886"
             style="fill:#8cc63f;fill-opacity:1;fill-rule:nonzero;stroke:none"
             id="path226" />
        </g>
        <g
           id="g228">
          <g
             id="g230" />
          <g
             id="g242">
            <g
               clip-path="url(#clipPath234)"
               id="g240">
              <text
                 xml:space="preserve"
                 transform="matrix(1,0,0,-1,328.3818,280.5156)"
                 style="font-variant:normal;font-weight:bold;font-stretch:normal;font-size:74.7587px;font-family:Arial;-inkscape-font-specification:Arial-BoldMT;writing-mode:lr-tb;fill:#00ff00;fill-opacity:1;fill-rule:nonzero;stroke:none"
                 id="text238"><tspan
                   x="0 41.565838 83.131676 112.21281"
                   y="0"
                   id="tspan236">saru</tspan></text>
            </g>
          </g>
        </g>
      </g>
    </g>
  </g>
</svg>
